Coordinates
version=1
nRows=12
nColumns=24
inDegrees=yes

Units are S.I. units (second, meters, Newtons, ...)
Angles are in degrees.

endheader
time	pelvis_tilt	pelvis_list	pelvis_rotation	pelvis_tx	pelvis_ty	pelvis_tz	hip_flexion_r	hip_adduction_r	hip_rotation_r	knee_angle_r	ankle_angle_r	subtalar_angle_r	mtp_angle_r	hip_flexion_l	hip_adduction_l	hip_rotation_l	knee_angle_l	ankle_angle_l	subtalar_angle_l	mtp_angle_l	lumbar_extension	lumbar_bending	lumbar_rotation
      1.05866667	      0.34678084	     -3.85010562	     -2.60384170	      0.38988984	      1.00783015	      0.30590729	     13.68366361	      7.54834771	     -1.90212167	    -21.13104869	      0.38829237	    -16.39609549	     -0.25439431	     18.50389223	     -8.90974375	     -5.93260029	    -81.96829364	      3.90263152	     -1.87128428	     -3.72273721	    -11.18048901	      6.31228941	      3.49144801
      1.06283333	      0.58409247	     -3.71769186	     -2.80359963	      0.39477342	      1.00931433	      0.30657216	     12.91072239	      7.45833512	     -1.65272184	    -20.73752147	      0.44883625	    -16.32000905	     -0.24410505	     18.89707879	     -8.81000537	     -6.09464714	    -81.78264100	      4.07222058	     -1.70106421	     -3.81318776	    -11.45717983	      6.07542902	      3.69473932
      1.06700000	      0.81316570	     -3.58079820	     -3.00287111	      0.39965056	      1.01077680	      0.30722234	     12.14453231	      7.35529180	     -1.40960949	    -20.33461608	      0.50048476	    -16.23820581	     -0.23478977	     19.28565671	     -8.70480891	     -6.26235956	    -81.53851591	      4.22009682	     -1.57258091	     -3.90331023	    -11.72272402	      5.84970772	      3.88758690
      1.07116667	      1.03162483	     -3.44893767	     -3.19436319	      0.40451356	      1.01219122	      0.30786788	     11.39045408	      7.24927221	     -1.18211739	    -19.92859305	      0.55522764	    -16.14368281	     -0.22594888	     19.67719044	     -8.61055039	     -6.43125037	    -81.24494376	      4.35646508	     -1.46202759	     -3.99220240	    -11.97731123	      5.61991462	      4.07150395
      1.07533333	      1.24430188	     -3.31894499	     -3.38033165	      0.40934792	      1.01355900	      0.30850731	     10.64655133	      7.13779044	     -0.96723929	    -19.52478019	      0.61262326	    -16.04414472	     -0.21884889	     20.06636109	     -8.52112022	     -6.60079222	    -80.90278524	      4.47776152	     -1.37046410	     -4.07526212	    -12.22418505	      5.38672223	      4.23795995
      1.07950000	      1.43231219	     -3.18362281	     -3.56307908	      0.41417090	      1.01487189	      0.30912250	      9.93246637	      7.01202412	     -0.76708651	    -19.12078287	      0.66404017	    -15.92516277	     -0.21291107	     20.46956294	     -8.42588458	     -6.77365260	    -80.50412186	      4.58131173	     -1.31398942	     -4.15599725	    -12.44210920	      5.15054893	      4.39730480
      1.08366667	      1.63714514	     -3.05899905	     -3.74196559	      0.41896377	      1.01616330	      0.30973594	      9.20105604	      6.89034994	     -0.57517714	    -18.71457086	      0.72276110	    -15.79601474	     -0.20853210	     20.84384160	     -8.34751261	     -6.95230648	    -80.06146840	      4.67836692	     -1.27015994	     -4.23463740	    -12.68079596	      4.92583595	      4.55601638
      1.08783333	      1.79729415	     -2.93043509	     -3.91630151	      0.42375398	      1.01735544	      0.31032708	      8.52566016	      6.75882845	     -0.39934389	    -18.31970105	      0.77752526	    -15.65504729	     -0.20586679	     21.25532457	     -8.26608475	     -7.12959301	    -79.56935200	      4.75457679	     -1.26323227	     -4.31002129	    -12.86775327	      4.70731729	      4.69580487
      1.09200000	      1.96378992	     -2.80892221	     -4.08494147	      0.42852954	      1.01852212	      0.31090075	      7.84341264	      6.62659961	     -0.23842355	    -17.92090064	      0.83970292	    -15.49846620	     -0.20471455	     21.64519107	     -8.19197184	     -7.30614862	    -79.02638600	      4.82491482	     -1.26708617	     -4.38343034	    -13.06103715	      4.48953274	      4.83141743
      1.09616667	      2.10365637	     -2.68474523	     -4.25237898	      0.43328266	      1.01960473	      0.31146675	      7.20012897	      6.48695801	     -0.09187635	    -17.53796193	      0.91070552	    -15.32947008	     -0.20478553	     22.05225493	     -8.11814260	     -7.48562827	    -78.43736681	      4.88121374	     -1.29651686	     -4.45262803	    -13.22533710	      4.27087723	      4.95565163
      1.10033333	      2.24641269	     -2.57705852	     -4.41381139	      0.43801705	      1.02064767	      0.31202483	      6.55300940	      6.35965248	      0.04436533	    -17.14947042	      0.97358026	    -15.14831488	     -0.20636050	     22.44279294	     -8.06543000	     -7.66302908	    -77.80551742	      4.93580997	     -1.33700815	     -4.52231870	    -13.39654611	      4.06491291	      5.08327815
      1.10450000	      2.36129433	     -2.46393990	     -4.57592916	      0.44274878	      1.02161055	      0.31255530	      5.94416537	      6.22147390	      0.16613421	    -16.77453049	      1.05028476	    -14.95656570	     -0.20831836	     22.84691173	     -8.00608275	     -7.84586596	    -77.12261265	      4.97915105	     -1.40405723	     -4.58882248	    -13.53360022	      3.86862253	      5.19270527
